<svg id="Layer_1" data-name="Layer 1" xmlns="http://www.w3.org/2000/svg" viewBox="0 0 108.93 106.24"><defs><style>.cls-1,.cls-2{fill:#191717;}.cls-1{fill-rule:evenodd;}</style></defs><title>GitHub-Mark</title><path class="cls-1" d="M265.49,222.87A54.47,54.47,0,0,0,248.27,329c2.72.5,3.72-1.18,3.72-2.62s-.05-5.59-.07-10.14c-15.16,3.29-18.35-6.43-18.35-6.43-2.48-6.29-6-8-6-8-4.94-3.38.37-3.31.37-3.31,5.47.39,8.35,5.62,8.35,5.62,4.86,8.32,12.74,5.91,15.85,4.52a11.59,11.59,0,0,1,3.46-7.28c-12.1-1.38-24.82-6.05-24.82-26.92a21.08,21.08,0,0,1,5.62-14.62c-.57-1.37-2.43-6.91.52-14.41,0,0,4.58-1.46,15,5.58a51.75,51.75,0,0,1,27.28,0c10.4-7,15-5.58,15-5.58,3,7.5,1.1,13,.54,14.41a21.07,21.07,0,0,1,5.6,14.62c0,20.92-12.74,25.53-24.87,26.88,2,1.69,3.7,5,3.7,10.08,0,7.29-.07,13.15-.07,14.95,0,1.45,1,3.15,3.75,2.61a54.47,54.47,0,0,0-17.25-106.14Z" transform="translate(-211.02 -222.87)"/><path class="cls-2" d="M231.65,301.07c-.12.27-.55.35-.93.17s-.62-.55-.49-.82.54-.36.94-.17.62.55.48.82Zm-.67-.49" transform="translate(-211.02 -222.87)"/><path class="cls-2" d="M233.86,303.53c-.26.24-.77.13-1.12-.25s-.42-.89-.15-1.13.76-.13,1.11.25.43.89.16,1.13Zm-.52-.55" transform="translate(-211.02 -222.87)"/><path class="cls-2" d="M236,306.67c-.33.23-.88,0-1.21-.47s-.34-1.07,0-1.3.87,0,1.21.46.34,1.07,0,1.31Zm0,0" transform="translate(-211.02 -222.87)"/><path class="cls-2" d="M239,309.7c-.3.33-.94.24-1.4-.21s-.61-1.06-.31-1.39.94-.24,1.41.21.61,1.06.3,1.39Zm0,0" transform="translate(-211.02 -222.87)"/><path class="cls-2" d="M243,311.46c-.13.43-.74.62-1.36.44s-1-.69-.89-1.12.74-.63,1.36-.44,1,.69.89,1.12Zm0,0" transform="translate(-211.02 -222.87)"/><path class="cls-2" d="M247.46,311.79c0,.44-.51.82-1.15.83s-1.18-.35-1.19-.8.51-.82,1.16-.83,1.18.35,1.18.8Zm0,0" transform="translate(-211.02 -222.87)"/><path class="cls-2" d="M251.61,311.08c.08.44-.37.89-1,1s-1.21-.16-1.29-.59.38-.9,1-1,1.22.15,1.3.6Zm0,0" transform="translate(-211.02 -222.87)"/></svg>
