<svg xmlns="http://www.w3.org/2000/svg" width="28.913" height="21.754" viewBox="0 0 28.913 21.754">
  <g id="Component_11_1" data-name="Component 11 – 1" transform="translate(1.511 0.675)">
    <path id="Path_97" data-name="Path 97" d="M1196.679,44.009h24.367l-7.237,13.763h-5.458C1208.214,57.771,1196.679,44.009,1196.679,44.009Z" transform="translate(-1195.74 -44.009)" fill="#303030" stroke="#303030" stroke-width="1"/>
    <path id="Path_96" data-name="Path 96" d="M1221.447,44.307c.2.111.187.529.187.529V61.452a1.588,1.588,0,0,1-.428,1.134,1.465,1.465,0,0,1-1.279.378l-22.881.02a1.178,1.178,0,0,1-1-.412,1.64,1.64,0,0,1-.293-1.154V44.8s-.014-.436.173-.521.573.181.573.181l12.174,9.709,12.225-9.685S1221.246,44.2,1221.447,44.307Z" transform="translate(-1195.74 -43.428)" fill="#303030" stroke="#09f" stroke-width="3"/>
    <path id="Path_98" data-name="Path 98" d="M1196.75,63.484l22.844.016" transform="translate(-1195.239 -44.428)" fill="none" stroke="#303030" stroke-width="4"/>
  </g>
</svg>
