<svg id="Layer_1" data-name="Layer 1" xmlns="http://www.w3.org/2000/svg" viewBox="0 0 244.04 173.75"><defs><style>.cls-1{fill:#ee3124;}.cls-2{fill:#fff;}</style></defs><title>youtube-logo</title><path class="cls-1" d="M391.93,67.82a30.84,30.84,0,0,0-21.57-21.95c-19-5.19-95.35-5.19-95.35-5.19s-76.31,0-95.34,5.19a30.86,30.86,0,0,0-21.58,21.95c-5.1,19.35-5.1,59.74-5.1,59.74s0,40.39,5.1,59.74a30.86,30.86,0,0,0,21.58,21.95c19,5.18,95.34,5.18,95.34,5.18s76.31,0,95.35-5.18a30.84,30.84,0,0,0,21.57-21.95C397,168,397,127.56,397,127.56S397,87.17,391.93,67.82Z" transform="translate(-152.99 -40.68)"/><polygon class="cls-2" points="97.61 124.11 161.01 86.88 97.61 49.64 97.61 124.11"/></svg>