<svg id="Component_55_1" data-name="Component 55 – 1" xmlns="http://www.w3.org/2000/svg" width="185" height="161" viewBox="0 0 185 161">
  <path id="Polygon_17" data-name="Polygon 17" d="M138.75,0,185,80.5,138.75,161H46.25L0,80.5,46.25,0Z" fill="#4ec8db"/>
  <g id="Group_9" data-name="Group 9" transform="translate(-785.323 -844.885)">
    <circle id="Ellipse_119" data-name="Ellipse 119" cx="10.5" cy="10.5" r="10.5" transform="translate(898.323 892.885)" fill="#fff"/>
    <path id="Path_146" data-name="Path 146" d="M-6181.9-2935.772c.927,3.7-2.588,12.632,0,15.522s16.84,8.427,16.84,8.427c2.884,4.607-2.092,5.719-2.092,5.719s-17.875-6.916-20.715-10.1-.478-11.407-.478-11.407a56.4,56.4,0,0,0-8.521,3.354,46.561,46.561,0,0,0-7.246,4.709l9.257,11.885a6.109,6.109,0,0,1-2.628,7.585s-8.251.828-16.373,2.113c-5.856,1.171-11.829,1.595-13.033.986,0,0-3.353-.037-3.647-4.457s3.173-5.067,3.173-5.067,17.667-1.922,18.607-2.517-8.237-11.839-8.237-11.839a6.935,6.935,0,0,1,.94-8.268s10.271-8.979,12.784-8.885,6.961,4.169,10.7,6.327c2.461,1.289,7.175-1.954,5.753-5.163s-5.753-5.047-5.753-5.047S-6183.9-2942.289-6181.9-2935.772Z" transform="translate(7078.981 3840.211)" fill="#fff"/>
    <path id="Path_147" data-name="Path 147" d="M3.083,0C2.42-.073-.649,11.064.124,11.56s9.781-.7,10.006-1.567S3.746.073,3.083,0Z" transform="matrix(0.999, 0.035, -0.035, 0.999, 858.172, 919.922)" fill="#fff"/>
    <path id="Path_148" data-name="Path 148" d="M-6226.451-2912.885s.786,1.091,4.546,1.436,12.05-1.587,12.05-1.587l-22.539,16.781c-8.2.884-6.33-7.363-6.33-7.363Z" transform="translate(7076 3855.85)" fill="#fff"/>
    <path id="Path_149" data-name="Path 149" d="M-6190.244-2935.119a2.589,2.589,0,0,1,0,3.571,3.032,3.032,0,0,1-3.623,1.152s-11.229-8.092-13.641-8.713-16.978,2.362-16.978,2.362c-3.094-.2-3.217-5.375-1.1-6.229,0,0,16.423-3.524,19.461-2.931,2.078.4,9.06,4.994,13.435,8.333A13.4,13.4,0,0,1-6190.244-2935.119Z" transform="translate(7080.9 3838)" fill="#fff"/>
  </g>
</svg>
